<svg width="69" height="66" viewBox="0 0 69 66" fill="none" xmlns="http://www.w3.org/2000/svg">
<path d="M2.66699 3L3.53769 3.30613C7.8763 4.83149 10.0456 5.59419 11.2864 7.40991C12.5272 9.22567 12.5272 11.6375 12.5272 16.4611V25.5332C12.5272 35.3385 12.738 38.5741 15.626 41.6205C18.514 44.6664 23.1621 44.6664 32.4585 44.6664H36.0001M50.1347 44.6664C55.338 44.6664 57.9397 44.6664 59.7787 43.1678C61.6177 41.6691 62.143 39.1211 63.1933 34.0248L64.8593 25.9424C66.0163 20.1455 66.5946 17.2472 65.115 15.3235C63.6353 13.3999 58.5793 13.3999 52.9627 13.3999H32.7452M12.5272 13.3999H19.3336M21.0002 52.9997C23.7616 52.9997 26.0002 55.2384 26.0002 57.9997C26.0002 60.761 23.7616 62.9997 21.0002 62.9997C18.2388 62.9997 16.0002 60.761 16.0002 57.9997C16.0002 55.2384 18.2388 52.9997 21.0002 52.9997ZM51.0001 53.0001C53.7614 53.0001 56 55.2384 56 58C56 60.7613 53.7614 63 51.0001 63C48.2387 63 46.0001 60.7613 46.0001 58C46.0001 55.2384 48.2387 53.0001 51.0001 53.0001Z" stroke="white" stroke-width="4.99997" stroke-linecap="round"/>
</svg>
