<svg width="512" height="512" viewBox="0 0 512 512" fill="none" xmlns="http://www.w3.org/2000/svg">
<path d="M431.053 199.515C422.155 116.955 358.386 53.178 275.021 43.4607C261.761 41.9154 243.432 42.2397 230.928 44.2415C154.288 56.5082 95.628 113.253 82.5877 187.74C80.3505 200.519 80.0305 207.373 81.617 208.533C84.9685 210.984 88.3498 208.697 88.3498 203.98C88.3498 160.783 120.653 106.33 163.016 78.1138C214.253 43.9883 286.571 40.9533 337.199 70.805C339.211 71.9912 341.018 72.9618 341.215 72.9618C341.412 72.9618 344.495 74.9124 348.065 77.2968C391.495 106.3 419.376 151.705 423.235 199.715C423.908 208.08 424.543 209.495 427.62 209.495C431.165 209.495 431.899 207.363 431.053 199.515Z" fill="#1E1E1E"/>
<path d="M314.483 131.393C314.483 128.874 303.088 125.123 277.15 119.099C268.936 117.193 261.995 115.631 261.726 115.631C261.456 115.629 259.216 117.164 256.748 119.04C254.28 120.916 248.101 125.613 243.016 129.476C207.965 156.108 207.508 158.954 239.403 151.962C249.877 149.666 248.633 148.99 250.863 158.184C251.717 161.702 251.888 163.558 251.388 163.872C228.668 178.169 212.352 207.754 208.186 242.206C207.359 249.052 207.565 248.93 202.621 245.497C200.198 243.815 189.896 236.672 179.728 229.624C154.882 212.404 141.791 203.242 139.071 201.172C136.815 199.454 136.815 199.454 134.962 202.164C132.725 205.438 131.866 204.565 148.439 215.869C154.696 220.137 164.456 226.875 170.128 230.841C175.799 234.808 186.199 241.913 193.239 246.629C200.279 251.346 206.103 255.251 206.181 255.307C206.259 255.363 206.135 257.238 205.904 259.474C205.399 264.366 205.719 264.317 188.616 262.126C174 260.254 173.463 260.126 174.089 258.672C176.691 252.623 173.311 247.184 166.95 247.184C165.96 247.184 165.15 246.849 165.15 246.439C165.15 242.893 157.519 241.011 153.377 243.537C151.258 244.829 151.164 244.829 149.565 243.534C144.439 239.383 137.154 243.385 137.537 250.142C137.676 252.597 137.481 254.296 137.061 254.294C136.67 254.292 131.595 253.179 125.783 251.821C109.727 248.069 108.462 250.12 118.556 263.54C122.567 268.873 122.567 268.873 111.219 269.229C98.3402 269.632 96.8831 270.189 96.8831 274.704C96.8831 280.254 98.1055 280.606 117.373 280.606C146.977 280.606 155.75 294.314 126.476 294.829C115.348 295.024 106.101 295.344 105.926 295.54C103.589 298.159 103.513 301.522 105.74 303.749C108.501 306.511 403.843 306.511 406.604 303.749C408.844 301.51 408.886 298.425 406.704 296.374C405.093 294.861 404.626 294.829 384.6 294.829C373.095 294.829 364.246 294.554 364.38 294.202C367.971 284.707 376.94 280.606 394.115 280.606C414.391 280.606 415.461 280.324 415.461 274.976C415.461 270.1 414.252 269.637 400.459 269.229C388.445 268.873 388.445 268.873 395.28 260.34C412.351 239.025 415.901 232.691 412.616 229.406C410.683 227.473 410.953 227.383 402.633 232.727C389.385 241.236 372.244 248.475 354.787 252.931C348.344 254.577 332.089 257.949 331.917 257.677C331.853 257.577 331.248 256 330.571 254.171C328.035 247.323 321.88 241.435 316.129 240.357C314.464 240.044 313.673 239.46 313.471 238.393C312.122 231.277 311.232 227.759 309.446 222.477C308.31 219.114 307.458 216.31 307.553 216.248C307.916 216.011 326.724 202.478 339.016 193.61C362.322 176.797 360.774 178.45 357.305 174.065C355.888 172.273 356.386 171.949 317.681 199.928C302.852 210.648 304.614 210.424 300.317 202.136C293.535 189.054 285.231 178.12 278.495 173.401C276.283 171.852 276.283 171.852 275.834 176.68C275.271 182.745 273.37 188.63 273.288 184.559C273.261 183.164 273.535 180.284 273.897 178.159C274.26 176.034 274.753 172.818 274.993 171.013C275.43 167.731 275.43 167.731 278.972 167.311C285.631 166.523 286.261 165.886 287.381 158.814C288.257 153.278 288.551 152.538 290.022 152.169C291.676 151.754 291.676 151.754 289.662 147.736L289.662 147.736C286.526 141.484 286.344 140.518 288.302 140.512C295.241 140.488 314.483 133.787 314.483 131.393Z" fill="#1E1E1E"/>
<path d="M162.802 329.517C199.136 329.288 203.611 327.907 196.146 319.224C193.254 315.86 130.408 316.004 127.856 319.38C121.126 328.284 126.168 329.747 162.802 329.517Z" fill="#1E1E1E"/>
<path d="M381.756 328.934C385.973 327.331 387.036 322.031 383.76 318.952C382.113 317.406 222.236 315.716 218.128 317.202C217.736 317.344 216.515 317.659 215.414 317.903C211.304 318.812 210.426 325.421 214.037 328.262C216.113 329.896 377.527 330.542 381.756 328.934Z" fill="#1E1E1E"/>
<path d="M367.21 353.083C371.244 350.925 370.913 344.522 366.677 342.752C364.387 341.795 152.579 341.337 147.372 342.277C142.593 343.139 140.757 348.723 144.14 352.105C146.071 354.036 363.647 354.991 367.21 353.083Z" fill="#1E1E1E"/>
<path d="M330.839 373.042C330.839 371.181 329.212 368.715 327.349 367.752C324.282 366.165 187.462 366.127 183.816 367.711C180.646 369.089 180.273 373.426 183.07 376.402C185.891 379.405 326.454 378.864 328.998 375.84C330.01 374.637 330.839 373.378 330.839 373.042Z" fill="#1E1E1E"/>
<path d="M194.718 430.591C192.016 424.002 190.664 419.142 190.664 416.013C190.664 412.837 191.423 410.372 192.94 408.618C194.457 406.864 196.33 405.987 198.558 405.987C200.786 405.987 202.564 406.745 203.891 408.262C205.266 409.732 205.953 411.652 205.953 414.022C205.953 417.53 204.057 422.413 200.264 428.671C203.251 436.92 204.863 441.495 205.1 442.396C208.087 439.504 210.907 435.356 213.562 429.951C216.264 424.499 217.616 419.048 217.616 413.596C217.616 411.273 217.141 409.139 216.193 407.196C215.293 405.252 214.842 403.759 214.842 402.716C214.842 401.625 215.15 400.748 215.767 400.085C216.383 399.373 217.165 399.018 218.113 399.018C219.678 399.018 220.863 399.919 221.669 401.72C222.475 403.522 222.878 405.868 222.878 408.76C222.878 411.652 222.57 414.615 221.953 417.649C221.384 420.636 220.697 423.29 219.891 425.613C219.085 427.936 218.019 430.307 216.691 432.725C215.411 435.095 214.297 437.015 213.349 438.485C212.401 439.907 211.263 441.448 209.936 443.107C208.608 444.719 207.731 445.762 207.304 446.236C206.878 446.662 206.356 447.231 205.74 447.942C205.124 448.606 204.413 448.938 203.607 448.938C202.279 448.938 201.189 448.013 200.336 446.165C199.814 445.027 198.487 441.448 196.353 435.427C193.414 439.978 190.333 443.865 187.109 447.089L186.113 448.085C185.544 448.653 184.904 448.938 184.193 448.938C182.629 448.938 181.539 448.013 180.922 446.165C177.035 435.545 174.475 428.529 173.242 425.116C172.057 421.655 170.896 418.502 169.758 415.658C168.667 412.813 167.861 410.775 167.34 409.542C166.202 406.603 165.633 404.47 165.633 403.142C165.633 401.768 165.941 400.748 166.558 400.085C167.174 399.373 167.933 399.018 168.833 399.018C170.73 399.018 172.033 400.132 172.744 402.36C172.981 403.119 173.266 404.185 173.598 405.56C175.02 411.107 177.248 418.218 180.282 426.893C183.316 435.569 185.118 440.784 185.687 442.538C188.389 439.741 191.399 435.759 194.718 430.591ZM198.487 423.551C199.34 422.508 200.122 421.086 200.833 419.285C201.544 417.436 201.9 415.871 201.9 414.591C201.9 413.264 201.616 412.197 201.047 411.391C200.478 410.538 199.743 410.111 198.842 410.111C197.989 410.111 197.23 410.467 196.567 411.178C195.95 411.842 195.642 412.719 195.642 413.809C195.642 414.899 195.974 416.559 196.638 418.787C197.349 420.968 197.965 422.556 198.487 423.551ZM249.846 436.351L249.134 420.351C249.134 419.071 249.443 418.052 250.059 417.293C250.723 416.488 251.505 416.085 252.406 416.085C253.306 416.085 254.041 416.464 254.61 417.222C255.179 417.933 255.463 418.929 255.463 420.209C255.463 421.442 255.321 423.196 255.037 425.471C254.468 430.022 254.183 434.099 254.183 437.702C254.183 439.125 254.634 440.499 255.534 441.827C256.483 443.107 256.957 444.268 256.957 445.311C256.957 446.354 256.601 447.231 255.89 447.942C255.179 448.606 254.373 448.938 253.472 448.938C251.102 448.938 249.917 447.065 249.917 443.32C247.689 447.065 244.891 448.938 241.526 448.938C238.823 448.938 236.666 447.966 235.054 446.022C233.49 444.079 232.4 441.708 231.783 438.911L229.081 426.68C228.797 425.305 228.157 424.096 227.161 423.053C226.213 421.963 225.739 420.873 225.739 419.782C225.739 418.692 226.118 417.815 226.877 417.151C227.635 416.44 228.536 416.085 229.579 416.085C231.949 416.085 233.49 417.957 234.201 421.702L236.903 436.565C237.804 441.305 240.056 443.676 243.659 443.676C245.413 443.676 246.859 442.988 247.997 441.613C249.134 440.191 249.751 438.437 249.846 436.351ZM285.047 406.342C284.431 405.584 283.483 404.896 282.203 404.28C280.97 403.616 279.453 403.285 277.652 403.285C275.85 403.285 274.191 403.948 272.674 405.276C271.204 406.603 270.469 408.262 270.469 410.253C270.469 412.197 271.323 413.809 273.029 415.089C274.784 416.369 276.869 417.365 279.287 418.076C281.752 418.787 284.194 419.593 286.612 420.493C289.077 421.347 291.163 422.769 292.869 424.76C294.624 426.704 295.501 429.216 295.501 432.298C295.501 436.754 293.628 440.642 289.883 443.96C286.185 447.279 281.515 448.938 275.874 448.938C272.129 448.938 269.095 448.013 266.772 446.165C264.496 444.268 263.358 442.301 263.358 440.262C263.358 439.172 263.666 438.295 264.283 437.631C264.899 436.92 265.658 436.565 266.558 436.565C267.506 436.565 268.312 436.849 268.976 437.418C269.64 437.939 270.256 438.603 270.825 439.409C271.441 440.215 272.129 441.021 272.887 441.827C274.594 443.723 276.988 444.671 280.069 444.671C283.198 444.671 285.711 443.77 287.607 441.969C289.504 440.168 290.452 437.773 290.452 434.787C290.452 432.559 289.575 430.757 287.821 429.382C286.066 427.96 283.933 426.87 281.421 426.111C278.955 425.305 276.466 424.476 273.954 423.622C271.489 422.769 269.379 421.489 267.625 419.782C265.871 418.028 264.994 415.871 264.994 413.311C264.994 410.704 265.586 408.452 266.772 406.556C268.004 404.612 269.521 403.119 271.323 402.076C274.926 400.037 278.315 399.018 281.492 399.018C284.715 399.018 287.536 399.705 289.954 401.08C292.372 402.455 293.581 404.114 293.581 406.058C293.581 407.053 293.296 407.859 292.727 408.476C292.158 409.092 291.352 409.4 290.309 409.4C289.266 409.4 288.271 409.092 287.323 408.476C286.422 407.812 285.664 407.101 285.047 406.342ZM305.276 422.698C305.276 428.434 306.959 433.436 310.324 437.702C313.738 441.969 318.099 444.102 323.409 444.102C328.719 444.102 332.914 442.419 335.996 439.053C339.124 435.64 340.689 431.065 340.689 425.329C340.689 419.545 338.982 414.52 335.569 410.253C332.203 405.987 327.841 403.853 322.484 403.853C317.175 403.853 312.979 405.56 309.898 408.973C306.816 412.339 305.276 416.914 305.276 422.698ZM321.276 448.938C315.113 448.938 309.921 446.733 305.702 442.325C301.53 437.868 299.444 432.488 299.444 426.182C299.444 418.313 301.815 411.818 306.556 406.698C311.296 401.578 317.341 399.018 324.689 399.018C330.852 399.018 336.019 401.246 340.191 405.702C344.41 410.111 346.52 415.468 346.52 421.773C346.52 429.643 344.15 436.138 339.409 441.258C334.668 446.378 328.624 448.938 321.276 448.938Z" fill="#1E1E1E"/>
</svg>
