<svg width="74" height="70" viewBox="0 0 74 70" fill="none" xmlns="http://www.w3.org/2000/svg">
<path d="M73.0247 32.7225C71.1704 15.5178 57.8817 2.22752 40.5093 0.202537C37.746 -0.119474 33.9266 -0.0519016 31.3208 0.365246C15.35 2.92148 3.12591 14.7465 0.408451 30.2687C-0.0577465 32.9316 -0.124429 34.36 0.206176 34.6017C0.904583 35.1123 1.60921 34.6358 1.60921 33.6528C1.60921 24.6511 8.34077 13.3038 17.1689 7.42385C27.8461 0.31249 42.9161 -0.319971 53.4664 5.90078C53.8857 6.14796 54.2624 6.35023 54.3034 6.35023C54.3445 6.35023 54.9869 6.75671 55.7308 7.25358C64.7811 13.2975 70.5913 22.7595 71.3955 32.764C71.5357 34.5073 71.6678 34.8022 72.3092 34.8022C73.0479 34.8022 73.2008 34.3578 73.0247 32.7225Z" fill="white"/>
<path d="M48.7328 18.5266C48.7328 18.0018 46.3582 17.2199 40.9531 15.9648C39.2414 15.5675 37.7949 15.2421 37.7387 15.2419C37.6824 15.2416 37.2156 15.5614 36.7014 15.9523C36.1871 16.3434 34.8995 17.322 33.8399 18.1271C26.5356 23.6769 26.4404 24.2699 33.0868 22.8129C35.2696 22.3344 35.0103 22.1937 35.475 24.1094C35.653 24.8427 35.6886 25.2294 35.5844 25.2949C30.8498 28.2742 27.4498 34.4394 26.5817 41.6188C26.4092 43.0454 26.4524 43.0199 25.422 42.3045C24.9171 41.954 22.7704 40.4656 20.6513 38.9968C15.4738 35.4083 12.7456 33.4992 12.179 33.0677C11.7088 32.7098 11.7088 32.7098 11.3227 33.2744C10.8564 33.9566 10.6775 33.7748 14.131 36.1304C15.4351 37.0198 17.469 38.4239 18.6507 39.2505C19.8325 40.0771 21.9998 41.5576 23.4668 42.5405C24.9339 43.5234 26.1475 44.3371 26.1638 44.3488C26.1801 44.3606 26.1542 44.7513 26.106 45.2172C26.0008 46.2366 26.0675 46.2264 22.5036 45.7698C19.4576 45.3796 19.3459 45.3531 19.4763 45.0501C20.0185 43.7896 19.3142 42.6561 17.9886 42.6561C17.7822 42.6561 17.6134 42.5863 17.6134 42.5008C17.6134 41.7618 16.0232 41.3697 15.1602 41.896C14.7184 42.1653 14.699 42.1653 14.3658 41.8955C13.2976 41.0305 11.7795 41.8643 11.8592 43.2724C11.8882 43.7841 11.8476 44.1381 11.76 44.1377C11.6785 44.1372 10.6209 43.9053 9.40979 43.6223C6.06387 42.8405 5.80039 43.2678 7.90376 46.0644C8.73968 47.1758 8.73969 47.1758 6.37491 47.2499C3.69109 47.3339 3.38746 47.45 3.38746 48.391C3.38746 49.5476 3.64219 49.6209 7.65733 49.6209C13.8264 49.6209 15.6547 52.4775 9.55427 52.5847C7.23529 52.6254 5.30841 52.6921 5.27196 52.7328C4.78487 53.2786 4.76901 53.9795 5.23313 54.4437C5.80839 55.0191 67.3544 55.0191 67.9297 54.4437C68.3965 53.977 68.4052 53.334 67.9506 52.9068C67.6148 52.5915 67.5176 52.5847 63.3443 52.5847C60.9468 52.5847 59.1028 52.5275 59.1306 52.4541C59.8791 50.4754 61.748 49.6209 65.3272 49.6209C69.5523 49.6209 69.7753 49.5621 69.7753 48.4476C69.7753 47.4314 69.5234 47.335 66.649 47.2499C64.1456 47.1758 64.1456 47.1758 65.5698 45.3976C69.1272 40.956 69.8671 39.6359 69.1826 38.9514C68.7797 38.5485 68.836 38.5298 67.1022 39.6435C64.3415 41.4165 60.7694 42.9251 57.1317 43.8538C55.789 44.1967 52.4016 44.8994 52.3657 44.8426C52.3525 44.8219 52.2264 44.4932 52.0854 44.1122C51.5568 42.685 50.2742 41.4582 49.0757 41.2334C48.7288 41.1683 48.564 41.0465 48.5217 40.8241C48.2406 39.3413 48.0552 38.6081 47.6831 37.5073C47.4463 36.8066 47.2688 36.2224 47.2887 36.2094C47.3643 36.16 51.2837 33.3399 53.8452 31.4918C58.7018 27.9882 58.3793 28.3328 57.6563 27.4189C57.361 27.0456 57.4648 26.9779 49.3992 32.8085C46.3089 35.0424 46.6761 34.9957 45.7807 33.2686C44.3675 30.5425 42.6369 28.2639 41.2331 27.2805C40.7723 26.9577 40.7723 26.9577 40.6788 27.9638C40.5614 29.2277 40.1652 30.4542 40.1483 29.6058C40.1426 29.3151 40.1997 28.7149 40.2751 28.2722C40.3507 27.8292 40.4534 27.1591 40.5035 26.7829C40.5946 26.099 40.5946 26.099 41.3326 26.0116C42.7202 25.8472 42.8515 25.7145 43.0849 24.2407C43.2676 23.0872 43.3288 22.933 43.6353 22.8561C43.9801 22.7695 43.9801 22.7695 43.5603 21.9323L43.5603 21.9323C42.9068 20.6294 42.869 20.4282 43.2769 20.4268C44.723 20.4219 48.7328 19.0254 48.7328 18.5266Z" fill="white"/>
<path d="M17.1243 59.8132C24.6957 59.7655 25.6283 59.4777 24.0726 57.6684C23.4699 56.9674 10.3737 56.9974 9.8419 57.7008C8.43931 59.5564 9.49011 59.8612 17.1243 59.8132Z" fill="white"/>
<path d="M62.7517 59.6919C63.6305 59.3577 63.852 58.2534 63.1692 57.6118C62.8261 57.2895 29.5095 56.9374 28.6534 57.2471C28.5719 57.2766 28.3174 57.3422 28.0879 57.393C27.2315 57.5826 27.0484 58.9598 27.8009 59.5518C28.2336 59.8922 61.8704 60.0269 62.7517 59.6919Z" fill="white"/>
<path d="M59.7204 64.7243C60.5611 64.2744 60.4922 62.9403 59.6093 62.5713C59.1321 62.372 14.9938 62.2764 13.9088 62.4723C12.9129 62.6521 12.5303 63.8156 13.2352 64.5204C13.6376 64.9229 58.978 65.1217 59.7204 64.7243Z" fill="white"/>
<path d="M52.1411 68.8835C52.1411 68.4957 51.8022 67.9818 51.4139 67.781C50.7746 67.4503 22.263 67.4424 21.5033 67.7725C20.8426 68.0597 20.7649 68.9633 21.3478 69.5837C21.9356 70.2095 51.2273 70.0967 51.7574 69.4666C51.9684 69.2159 52.1411 68.9534 52.1411 68.8835Z" fill="white"/>
</svg>
